PathFileType	4	(X/Y/Z)	Patient4_TMGait_0pt3_01_right_25.trc.trc
DataRate	CameraRate	NumFrames	NumMarkers	Units	OrigDataRate	OrigDataStartFrame	OrigNumFrames
51.094890510949	51.094890510949	7	33	mm	51.094890510949	18	       141
Frame#	Time	Sacral			L.Shoulder			Chest			R.Shoulder			Neck			R.ASIS			L.ASIS			R.Thigh.Superior			R.Thigh.Lateral			R.Thigh.Inferior			R.Patella			L.Thigh.Superior			L.Thigh.Lateral			L.Thigh.Inferior			L.Patella			L.Shank.Superior			L.Shank.Lateral			L.Shank.Inferior			R.Shank.Superior			R.Shank.Lateral			R.Shank.Inferior			R.Heel			R.Midfoot.Superior			R.Midfoot.Lateral			R.Toe			L.Heel			L.Midfoot.Lateral			L.Midfoot.Superior			L.Toe			L.Elbow			L.Wrist			R.Elbow			R.Wrist			
		X1	Y1	Z1	X2	Y2	Z2	X3	Y3	Z3	X4	Y4	Z4	X5	Y5	Z5	X6	Y6	Z6	X7	Y7	Z7	X8	Y8	Z8	X9	Y9	Z9	X10	Y10	Z10	X11	Y11	Z11	X12	Y12	Z12	X13	Y13	Z13	X14	Y14	Z14	X15	Y15	Z15	X16	Y16	Z16	X17	Y17	Z17	X18	Y18	Z18	X19	Y19	Z19	X20	Y20	Z20	X21	Y21	Z21	X22	Y22	Z22	X23	Y23	Z23	X24	Y24	Z24	X25	Y25	Z25	X26	Y26	Z26	X27	Y27	Z27	X28	Y28	Z28	X29	Y29	Z29	X30	Y30	Z30	X31	Y31	Z31	X32	Y32	Z32	X33	Y33	Z33	

18	46.272714285714	715.704029276302	1014.119753374249	435.325783168361	961.438220193080	1438.555915401079	298.634495899800	1017.504581853640	1359.513103692303	476.355257190049	898.903858724350	1435.597796891693	627.406726259574	911.749802112785	1496.078239819550	452.562417984532	922.161255003972	950.490950604926	590.683592369174	951.857485175351	957.051020693054	318.204395117973	994.531283313033	772.715664891183	565.306745626808	943.862791336379	653.258369050510	634.271929541573	1031.440634427742	609.810293359575	557.804610399939	1057.032385268779	517.118941144961	581.628484315309	968.164430838431	732.672120284633	358.519022163796	872.223616412809	624.420620256629	291.024097491052	937.219511686116	540.931436423109	367.023493260512	927.987820894846	471.562582096545	376.524757931866	889.773744032355	403.366039977124	366.166186863486	787.628898249484	301.276338825164	314.126246071242	817.275400993284	185.790849059704	388.667929814126	1017.500837370792	429.801230573935	590.381042017157	932.613894665675	336.536343814702	650.912357837965	977.517202456412	235.169280192095	602.926167129269	840.277755356375	73.836617825371	571.580814659348	1010.851085959369	117.010840060333	617.255424707842	920.793450282467	55.850816441875	647.399502147681	1126.155124385490	61.556152372537	646.230868226332	671.395249586805	39.460659575543	429.826898733559	743.763850930746	36.030827480636	348.314248638845	829.259960871803	95.248371338782	374.024183753350	955.774776637410	39.697525585916	341.058346710253	1060.297653929090	1136.354467022801	128.323719459881	1304.818332103071	1048.868206223752	153.425543837601	726.665127535631	1122.248826130061	692.929234520851	672.529860910146	867.677550764405	703.940751978865	
19	46.292285714286	716.513459876060	1013.811164447007	435.720514980558	963.515476584213	1438.430885342581	302.101220840261	1017.165554750369	1359.567413740255	480.611244480008	896.535255051896	1436.009515964621	629.843123851591	911.372147181168	1495.960528282309	455.202764666313	921.031798858867	950.110297315984	593.847811972226	953.925913701692	956.870506467780	321.611265854754	991.640911331717	770.593673570267	569.553312348993	938.294087634600	651.563976114667	637.292579627893	1026.146233043172	607.864198113153	561.596490122441	1051.765359757427	518.057268229971	584.366903834150	966.087573488950	731.235706503973	361.514556785789	868.902731518360	624.740356187229	291.805138059303	931.312875233975	539.997620768742	368.115785855664	920.642325704574	471.211823761966	377.274700005341	883.140912292812	403.450902287088	366.522234700491	781.306813097428	301.211498241315	314.081668821095	810.967667385910	185.758104628950	388.747766729408	1017.608856749553	429.626305863700	593.060020639643	938.668304697659	330.629217420556	653.961333640249	990.016022779184	231.896733539725	605.534378846269	862.211491781346	62.440121270840	574.393654037616	1031.167188995543	114.632339795922	619.298127896700	944.332464901663	48.243859591279	649.733063989443	1150.186260562713	64.982614719135	647.337504052703	665.415221826706	39.201248509498	429.768568753919	737.760570484385	35.864867839128	348.236638871848	823.197962923372	95.166252184256	374.033757239272	949.792741424345	39.725410864998	341.152398508984	1070.110229889048	1140.071594551381	132.046257413343	1318.806117622708	1067.192930515347	160.379966830402	718.639842194902	1126.612021704300	693.743769711705	661.903247171620	872.510762002087	704.719206961804	
20	46.311857142857	717.586062877755	1012.751574626211	436.536262333118	965.241235348982	1437.765835477272	305.867915206834	1016.813029394171	1359.125326242969	485.045685255932	894.364094356975	1435.788986985283	632.664168437443	910.955616066179	1495.286377016801	458.207888119391	920.322078582143	949.020655464238	597.200878254590	956.203560161948	956.213249839313	325.194058037463	989.335528540647	767.850742709769	574.041506705679	933.182247343276	649.142704394322	640.255292616159	1021.605762019754	605.352003397256	565.514313589016	1046.766215412633	517.973929125523	587.024220184058	964.661941225768	729.580448021786	364.388807271122	866.255358572345	624.714145903950	292.731541001729	926.285892062790	538.828140120337	369.195654020221	914.249170767660	470.556577668459	378.066660843548	877.289495418783	403.193167188900	366.974081429570	775.520702584194	301.039844494110	314.094018796266	804.910929041795	185.545631492069	388.840916196186	1017.274019118046	428.694286158954	595.596005307012	943.394807936314	325.169593425993	656.624776690505	999.990500245955	228.906921126160	607.790083163137	880.150356206581	53.686696150491	576.661077131372	1047.573108246381	112.581307554191	620.972154631619	963.288388342430	42.497871473462	651.672898653261	1169.139950541770	67.337631423677	648.296981747184	659.428543834554	38.923950937146	429.693319843574	731.763559405099	35.674311627200	348.146843130890	817.128917309330	95.063717194444	374.049135360474	943.814321676896	39.734253781345	341.243335673248	1079.439433271187	1143.217831777575	136.249624814654	1331.222464245442	1084.194115645431	167.396006934926	712.183270626032	1129.669636274038	695.252869221712	654.418436909509	875.692599012117	706.427982956980	
21	46.331428571429	718.943291779261	1011.092518215220	437.809326408867	966.625301866046	1436.701835677921	309.944146858958	1016.470390059269	1358.334526025358	489.676828860775	892.386150314481	1435.054636473763	635.896129241733	910.497477448120	1494.182741864192	461.601628545143	920.092329367431	947.381468597873	600.754022998899	958.703531980496	955.214978338423	328.960605992888	987.818577943532	764.782027879864	578.629158357061	928.882628123295	646.228351538152	643.040823197885	1018.157831420324	602.554169993730	569.402339314896	1042.434691762779	517.022173452776	589.475440517102	963.904605764461	727.771669587903	367.136616862181	864.240830227279	624.422021701952	293.861419098140	922.126487136254	537.488135278060	370.312059672070	908.816885128033	469.647634082111	378.945611422831	872.192190626374	402.659320324827	367.553843585459	770.232381871102	300.836633076719	314.196400640047	799.099728819885	185.205876119242	388.948195192214	1016.728396669797	427.113014941251	597.854621845201	946.809715699035	320.278593628185	658.777843017605	1007.317848184314	226.141937611614	609.529080788964	893.567726538310	47.442893813644	578.235623729995	1059.760826311782	110.710410060657	622.114930677236	977.195135561108	38.495672032459	653.110970164578	1182.795027522148	68.375607602904	649.036268675006	653.437001055099	38.667333620217	429.592004966226	725.780345084044	35.477248432685	348.045442628694	811.068023650081	94.958790203369	374.055365710541	937.846037669221	39.718263845192	341.322584843724	1088.129793933407	1145.816834261389	140.931944110853	1342.077576571177	1099.700234947403	174.418388742745	707.323047860530	1131.414629875006	697.421235363173	649.883528450331	877.234757906437	708.999747371647	
22	46.351000000000	720.590407495146	1009.040901527395	439.566441349816	967.719020182158	1435.409638300554	314.330717695171	1016.178000629202	1357.364017094365	494.519034328957	890.612824253201	1433.967317789418	639.545267387833	910.013731510684	1492.809802055732	465.390850148710	920.379860011480	945.398596799216	604.523088471148	961.416769767816	954.039255104619	332.923759173300	987.231213638851	761.683330274582	583.166414822063	925.680759157851	643.087524526533	645.570735275639	1016.018744661655	599.738768669698	573.112104512190	1039.081686235139	515.402552785307	591.623325079702	963.776616123615	725.893462009673	369.782319294088	862.781962867182	623.967787562373	295.249824555978	918.779320915402	536.061402838262	371.519862997438	904.310109248749	468.552671806152	379.950687181679	867.786772037424	401.938909629152	368.287945233921	765.378559004598	300.692304649848	314.423789465760	793.520209532498	184.809278262558	389.071218082241	1016.189081368818	425.036338528990	599.737050634812	949.043882498876	316.037977795117	660.382425174864	1012.069133195702	223.552847709805	610.654425502708	902.313707188102	43.409945138762	579.085121920817	1067.732342724769	108.909639945008	622.635843924276	986.006780339178	36.016930800583	654.014611505589	1191.314145111387	68.032306442873	649.487484791150	647.444370900990	38.487204534784	429.456795340868	719.818992122872	35.302221313554	347.934182019421	805.036468823516	94.874475208449	374.036959857392	931.895355837867	39.672082393088	341.381717896780	1096.050182250943	1147.920525092433	146.069076597836	1351.413790433373	1113.601782037813	181.407473139122	704.066007100048	1131.926912077193	700.210575691903	648.070105580118	877.270327056418	712.372941574322	
23	46.370571428571	722.511248225257	1006.828775009229	441.825182915227	968.603455225142	1434.065914668595	319.015053891520	1015.987283336036	1356.380248501568	499.575450901070	889.072399524586	1432.707009776543	643.596353700310	909.537673620588	1491.339356086627	469.561954262961	921.193643007183	943.294502531602	608.521526395943	964.306673478596	952.854468917219	337.093637165187	987.632675679282	758.813942713864	587.513446198224	923.765837539571	639.989096296313	647.824055974394	1015.258153963716	597.130515276454	576.517580296574	1036.895256134377	513.340624998126	593.413016687277	964.193617798907	724.042601989054	372.373210804021	861.786198693478	623.462874176726	296.941263187955	916.172294994362	534.639129079946	372.870399967158	900.676099850295	467.344862116387	381.107743536091	864.001709323847	401.129679557247	369.193413610165	760.892267612970	300.702640081248	314.810020383633	788.160505336971	184.436066392287	389.212283174161	1015.830953990238	422.648751181412	601.198891014794	950.315350295010	312.492307933441	661.486784327063	1014.491026341049	221.117340619840	611.152938400005	906.622851220641	41.181779755359	579.283385546979	1071.785178396771	107.129638074568	622.536194327828	990.086165894693	34.774016535662	654.421870067841	1195.205113687500	66.437674501128	649.611916471418	641.457771161576	38.457972312418	429.283097011045	713.888566603264	35.189489968316	347.815822514424	799.062660686093	94.837182859167	373.979841166029	925.970946003411	39.591357056147	341.413500184636	1103.108719525950	1149.598733075734	151.611295829290	1359.306958044900	1125.841357974030	188.335440233965	702.384097007679	1131.359848668538	703.581078436284	648.719004396876	876.027341414797	716.492706398467	
24	46.390142857143	724.666621011194	1004.682223127614	444.595028454939	969.371156693359	1432.832318870740	323.968290163897	1015.952317340129	1355.527562372549	504.832039830330	887.807923468740	1431.449962464224	648.014373770063	909.114524066358	1489.934574913751	474.080425120697	922.512392485744	941.278502478355	612.752963760128	967.308881748262	951.813248121350	341.470132728500	988.989857194796	756.367620420628	591.561579314164	923.207448251317	637.172873907837	649.843204880401	1015.792689957241	594.889757472800	579.533629993702	1035.918707605937	511.062200914679	594.845972896388	965.043316918953	722.321351296929	374.969694137417	861.168024159566	623.010618661309	298.963716844332	914.243478087718	533.308837275869	374.402657189606	897.870825927474	466.092444162447	382.423707273794	860.780663728070	400.323665981206	370.275021697443	756.723311371512	300.959268302489	315.384350011870	783.020597481222	184.168049130449	389.373867592138	1015.759832367288	420.144043584861	602.262936176951	950.877679492969	309.649850644990	662.209965812026	1014.956309856305	218.844400294414	611.099081050742	907.055839088403	40.309782648744	578.980912464002	1072.452648869523	105.381357518503	621.911873778648	990.123965802486	34.448793075580	654.426517927732	1195.232036082253	63.879162796043	649.422844060297	635.489548544687	38.672440170385	429.071273529052	707.999771313023	35.191460718759	347.694162262278	793.183099492167	94.874794774258	373.872946894210	920.082621723519	39.473349439158	341.412950300276	1109.259519498350	1150.929472177230	157.485674065175	1365.863437888379	1136.401533925597	195.182268420051	702.204015071789	1129.922510648592	707.492454513615	651.547594156547	873.797620379662	721.308432892344	
